<svg xmlns="http://www.w3.org/2000/svg" xmlns:xlink="http://www.w3.org/1999/xlink" preserveAspectRatio="xMidYMid meet" width="600" height="600" viewBox="0 0 600 600" style="width:100%;height:100%">

<g id="_R_G">
<g id="_R_G_L_1_G" transform=" translate(300, 300) translate(0, 0)">
<path id="_R_G_L_1_G_D_0_P_0" fill="#000000" fill-opacity="1" fill-rule="nonzero" d=" M316.89 -314 C316.89,-314 316.89,313.12 316.89,313.12 C316.89,313.12 -312,313.12 -312,313.12 C-312,313.12 -312,-314 -312,-314 C-312,-314 316.89,-314 316.89,-314z "/>
<path id="_R_G_L_1_G_D_1_P_0" stroke="#ffffff" stroke-linecap="round" stroke-linejoin="round" fill="none" stroke-width="2" stroke-opacity="1" d=" M316.89 -314 C316.89,-314 316.89,313.12 316.89,313.12 C316.89,313.12 -312,313.12 -312,313.12 C-312,313.12 -312,-314 -312,-314 C-312,-314 316.89,-314 316.89,-314z "/>
</g>
<g id="_R_G_L_0_G" transform=" translate(0, 150)">
<path id="_R_G_L_0_G_D_0_P_0" fill="#ffffff" fill-opacity="1" fill-rule="nonzero" d=" M579 144.5 C579.04,143.14 578.03,141.78 578.07,140.45 C578.11,139.11 578.78,137.77 578.8,136.45 C578.8,135.09 578.21,133.77 578.19,132.43 C578.19,131.09 578.43,129.75 578.37,128.43 C578.33,127.09 579.02,125.71 578.96,124.39 C578.9,123.05 578.43,121.73 578.35,120.39 C578.27,119.05 577.88,117.73 577.74,116.41 C577.62,115.06 577.64,113.72 577.48,112.4 C577.34,111.06 577.17,109.74 577.01,108.42 C576.83,107.08 576.48,105.78 576.28,104.46 C576.08,103.14 576.48,101.7 576.24,100.42 C576,99.12 575.2,97.92 574.92,96.6 C574.64,95.3 573.76,94.14 573.44,92.84 C573.14,91.56 574.21,89.92 573.87,88.62 C573.54,87.34 572.24,86.3 571.86,85.02 C571.51,83.74 571.55,82.34 571.15,81.06 C570.74,79.78 569.48,78.83 569.06,77.55 C568.63,76.31 567.92,75.15 567.47,73.87 C567.03,72.63 567.09,71.19 566.62,69.93 C566.16,68.71 566.16,67.27 565.63,66.03 C565.14,64.81 563.7,63.98 563.17,62.76 C562.62,61.54 563.25,59.8 562.7,58.6 C562.14,57.38 561.29,56.32 560.7,55.1 C560.13,53.9 559.91,52.5 559.28,51.35 C558.67,50.15 557.17,49.44 556.52,48.26 C555.91,47.08 556.4,45.29 555.75,44.13 C555.1,42.96 553.78,42.18 553.09,41.05 C552.4,39.89 551.77,38.71 551.06,37.59 C550.33,36.46 548.89,35.83 548.14,34.75 C547.39,33.61 546.66,32.54 545.91,31.46 C545.13,30.38 544.53,29.18 543.71,28.11 C542.92,27.05 542.6,25.59 541.79,24.55 C540.93,23.52 540.18,22.42 539.31,21.43 C538.42,20.41 537.42,19.5 536.53,18.52 C535.6,17.55 534.58,16.65 533.63,15.74 C532.63,14.82 531.17,14.46 530.2,13.58 C529.17,12.69 528.7,11.19 527.66,10.38 C526.61,9.54 525.49,8.75 524.42,8 C523.32,7.25 521.7,7.35 520.56,6.68 C519.38,6.03 518.59,4.73 517.38,4.16 C516.18,3.59 514.86,3.25 513.64,2.8 C512.36,2.35 511.19,1.62 509.93,1.29 C508.61,0.97 507.15,1.78 505.83,1.62 C504.51,1.44 503.29,1.03 501.96,1.03 C500.64,1.01 499.2,-0.15 497.88,0.02 C496.58,0.18 495.24,0.77 493.94,1.09 C492.5,1.48 491.61,3.06 490.41,3.57 C489.05,4.12 487.43,3.88 486.33,4.59 C485.11,5.38 484.46,6.72 483.57,7.69 C482.6,8.73 481.66,9.64 481.04,10.88 C480.41,12.08 480.47,13.5 480.12,14.84 C479.78,16.16 479.29,17.36 479.15,18.78 C479.03,20.13 477.95,21.49 477.97,22.91 C478.01,24.25 478.15,25.69 478.29,27.07 C478.44,28.41 479.43,29.71 479.64,31.07 C479.84,32.43 479.78,33.86 480.04,35.22 C480.3,36.56 480.2,38 480.49,39.36 C480.77,40.72 480.95,42.08 481.24,43.44 C481.5,44.8 482.23,46.08 482.46,47.42 C482.7,48.81 483.23,50.13 483.39,51.47 C483.57,52.89 484.3,54.25 484.38,55.57 C484.44,57.03 483.39,58.41 483.25,59.71 C483.08,61.18 482.7,62.41 482.23,63.65 C481.7,64.97 480.89,65.85 479.96,66.86 C479.05,67.78 478.48,69.26 477.12,69.87 C475.82,70.46 474.44,70.72 473.24,71.11 C471.9,71.58 470.46,71.29 469.21,71.54 C467.85,71.82 466.61,72.02 465.31,72.06 C463.95,72.08 462.63,72.45 461.31,72.23 C459.99,71.98 458.59,72.04 457.27,71.6 C456.06,71.17 455.27,69.58 454.01,69 C452.85,68.43 451.17,68.75 449.93,68.06 C448.83,67.43 447.96,66.25 446.78,65.5 C445.71,64.79 444.13,64.73 442.97,63.94 C441.89,63.21 441.29,61.72 440.15,60.93 C439.07,60.18 437.69,59.8 436.56,59 C435.5,58.23 434.43,57.4 433.29,56.61 C432.24,55.85 430.96,55.29 429.84,54.49 C428.77,53.74 428.26,52.08 427.12,51.28 C426.05,50.53 424.08,50.96 422.94,50.17 C421.85,49.41 421.01,48.22 419.9,47.47 C418.76,46.73 418.03,45.39 416.92,44.66 C415.8,43.93 414.66,43.18 413.53,42.45 C412.37,41.72 411.42,40.72 410.26,40.03 C409.12,39.32 407.42,39.52 406.28,38.81 C405.13,38.1 403.87,37.59 402.71,36.9 C401.56,36.21 400.99,34.49 399.85,33.82 C398.67,33.13 397.36,32.74 396.18,32.05 C395,31.4 393.62,31.11 392.45,30.46 C391.27,29.81 389.99,29.33 388.79,28.7 C387.6,28.09 386.38,27.52 385.16,26.91 C383.94,26.3 382.91,25.43 381.67,24.84 C380.47,24.25 379.46,23.21 378.24,22.64 C377.04,22.05 375.6,21.95 374.37,21.4 C373.15,20.86 371.69,20.86 370.43,20.33 C369.21,19.8 367.87,19.5 366.62,19.01 C365.38,18.48 364.55,16.94 363.31,16.45 C362.07,15.96 360.49,16.31 359.21,15.86 C357.93,15.39 356.88,14.38 355.62,13.95 C354.34,13.5 352.98,13.36 351.68,12.93 C350.4,12.53 349.17,12 347.87,11.61 C346.57,11.23 345.11,11.47 343.79,11.13 C342.49,10.78 341.37,9.83 340.05,9.5 C338.76,9.18 337.36,9.32 336.04,9.01 C334.72,8.73 333.52,7.96 332.2,7.67 C330.88,7.41 329.5,7.49 328.18,7.25 C326.87,7 325.65,6.15 324.31,5.93 C322.99,5.72 321.53,6.35 320.19,6.17 C318.87,6.01 317.55,5.72 316.21,5.56 C314.87,5.42 313.6,4.63 312.26,4.5 C310.92,4.38 309.58,4.16 308.24,4.08 C306.9,3.98 305.56,3.79 304.2,3.75 C302.86,3.71 301.5,4.54 300.16,4.54 C298.82,4.52 297.48,4.79 296.12,4.79 C294.77,4.79 293.45,4.34 292.11,4.36 C290.77,4.4 289.41,4.04 288.03,4.1 C286.71,4.16 285.37,4.63 284.03,4.73 C282.69,4.83 281.39,5.36 280.05,5.48 C278.71,5.62 277.25,4.48 275.92,4.65 C274.58,4.81 273.4,6.27 272.06,6.46 C270.74,6.62 269.36,6.45 268.02,6.66 C266.7,6.86 265.4,7.19 264.07,7.41 C262.75,7.65 261.27,7.08 259.93,7.35 C258.63,7.61 257.43,8.51 256.09,8.79 C254.79,9.07 253.53,9.58 252.22,9.93 C250.92,10.23 249.31,9.4 248.02,9.77 C246.72,10.09 245.78,11.78 244.46,12.12 C243.17,12.47 241.99,13.18 240.71,13.56 C239.41,13.95 237.79,13.22 236.49,13.6 C235.21,14.01 233.89,14.36 232.61,14.78 C231.34,15.21 230.4,16.59 229.12,17.04 C227.85,17.46 226.3,17.14 225.03,17.61 C223.79,18.07 222.79,19.33 221.52,19.8 C220.28,20.29 218.53,19.51 217.25,20 C216.02,20.53 215.02,21.63 213.74,22.14 C212.53,22.66 211.33,23.29 210.07,23.82 C208.85,24.37 207.6,24.88 206.38,25.45 C205.16,26 203.56,25.77 202.34,26.34 C201.12,26.91 199.99,27.68 198.77,28.27 C197.55,28.84 196.74,30.28 195.52,30.89 C194.33,31.48 192.82,31.48 191.59,32.09 C190.39,32.7 189.64,34.16 188.48,34.77 C187.28,35.4 185.64,35.18 184.48,35.83 C183.31,36.52 182.33,37.49 181.22,38.18 C180.06,38.87 178.54,38.95 177.42,39.66 C176.29,40.4 175.76,42.02 174.64,42.75 C173.55,43.5 172.84,44.82 171.74,45.58 C170.65,46.35 168.64,45.86 167.58,46.63 C166.51,47.47 165.57,48.5 164.54,49.29 C163.46,50.13 162.87,51.53 161.86,52.36 C160.81,53.21 159.47,53.68 158.45,54.49 C157.42,55.37 156.14,55.96 155.16,56.81 C154.13,57.7 153.38,58.88 152.38,59.73 C151.35,60.63 150.9,62.13 149.93,62.98 C148.89,63.9 147.09,63.84 146.09,64.67 C145.06,65.56 144.67,67.17 143.68,67.98 C142.62,68.87 141.51,69.63 140.49,70.4 C139.4,71.25 137.98,71.56 136.92,72.29 C135.77,73.04 134.55,73.49 133.41,74.09 C132.2,74.72 131.14,75.48 129.92,75.92 C128.64,76.37 127.51,77.02 126.19,77.26 C124.89,77.47 123.57,78.48 122.21,78.46 C120.93,78.44 119.57,77.73 118.21,77.45 C117,77.2 115.49,77.34 114.18,76.9 C112.98,76.47 111.86,75.54 110.6,74.95 C109.45,74.4 108.21,73.85 106.97,73.14 C105.76,72.45 105.45,70.68 104.5,69.75 C103.56,68.77 102.85,67.84 102.16,66.64 C101.51,65.48 100.6,64.51 100.16,63.19 C99.73,61.95 98.86,60.77 98.59,59.39 C98.33,58.09 98.07,56.73 97.9,55.35 C97.76,54.03 97.78,52.65 97.72,51.24 C97.68,49.9 98.76,48.54 98.74,47.14 C98.74,45.8 98.43,44.46 98.43,43.1 C98.45,41.74 98.57,40.4 98.61,39.01 C98.63,37.65 97.9,36.25 97.92,34.91 C97.92,33.53 98.63,32.15 98.63,30.81 C98.63,29.47 97.86,28.09 97.8,26.73 C97.74,25.35 98.09,23.94 97.94,22.62 C97.8,21.2 98.11,19.76 97.84,18.46 C97.58,17.08 96.85,15.78 96.42,14.52 C95.95,13.2 95.29,11.9 94.62,10.8 C93.89,9.62 93.14,8.3 92.14,7.39 C91.17,6.52 89.95,5.58 88.65,4.97 C87.51,4.4 86.01,4.26 84.57,3.96 C83.35,3.69 81.91,4.34 80.45,4.28 C79.18,4.24 77.86,4 76.41,4.12 C75.14,4.22 73.76,4.04 72.34,4.28 C71.1,4.48 70.06,5.6 68.71,6.09 C67.51,6.52 65.72,5.74 64.44,6.37 C63.31,6.96 62.8,8.77 61.62,9.5 C60.53,10.19 58.66,9.83 57.53,10.66 C56.49,11.41 56.08,13.12 55.03,13.97 C54.01,14.8 53.38,16.06 52.35,16.98 C51.38,17.85 49.71,17.99 48.72,18.95 C47.79,19.84 47.22,21.18 46.26,22.16 C45.35,23.13 43.85,23.54 42.91,24.53 C42.04,25.53 41.5,26.85 40.6,27.88 C39.75,28.9 38.8,29.83 37.94,30.87 C37.09,31.91 37.05,33.57 36.22,34.63 C35.39,35.68 33.66,36.01 32.85,37.13 C32.06,38.18 32,39.79 31.23,40.88 C30.46,41.98 29.32,42.81 28.57,43.95 C27.84,45.05 27.37,46.33 26.64,47.47 C25.91,48.6 24.45,49.25 23.74,50.41 C23.03,51.55 22.83,52.97 22.14,54.15 C21.49,55.31 21.43,56.81 20.78,57.97 C20.13,59.15 19.54,60.34 18.91,61.52 C18.3,62.72 17.55,63.84 16.96,65.04 C16.35,66.23 15.06,67.09 14.49,68.29 C13.92,69.5 13.33,70.74 12.8,71.96 C12.28,73.18 12.48,74.72 11.97,75.96 C11.48,77.2 10,78.08 9.52,79.33 C9.05,80.61 9.82,82.28 9.39,83.54 C8.97,84.82 7.47,85.75 7.08,87.03 C6.7,88.33 5.8,89.49 5.48,90.77 C5.13,92.07 6.21,93.72 5.93,95.02 C5.64,96.34 4.95,97.56 4.71,98.88 C4.44,100.22 4.24,101.54 4,102.86 C3.75,104.2 2.68,105.4 2.48,106.72 C2.27,108.06 2.86,109.52 2.68,110.84 C2.5,112.18 1.64,113.44 1.48,114.78 C1.34,116.12 2.33,117.58 2.19,118.92 C2.05,120.26 2.07,121.6 1.99,122.95 C1.89,124.29 1.46,125.61 1.4,126.93 C1.34,128.29 0.47,129.59 0.41,130.93 C0.35,132.29 0.06,133.63 0.02,134.97 C0,136.33 0,137.67 0,139.01 C0,140.35 0.65,141.71 0.69,143.06 C0.71,144.42 0.59,145.76 0.67,147.1 C0.73,148.46 1.7,149.74 1.81,151.08 C1.91,152.42 0.61,153.88 0.73,155.22 C0.85,156.56 1.44,157.88 1.58,159.2 C1.73,160.56 2.42,161.84 2.58,163.16 C2.76,164.5 3,165.83 3.19,167.17 C3.39,168.51 3.06,169.93 3.31,171.25 C3.55,172.59 4.06,173.87 4.34,175.15 C4.61,176.49 4.95,177.79 5.24,179.11 C5.54,180.43 5.5,181.81 5.82,183.13 C6.13,184.45 6.65,185.69 7,186.99 C7.35,188.31 8.58,189.35 8.95,190.65 C9.33,191.95 9.35,193.33 9.74,194.61 C10.17,195.91 9.9,197.41 10.33,198.69 C10.77,199.97 10.71,201.41 11.18,202.69 C11.63,203.97 13.11,204.84 13.6,206.08 C14.08,207.36 14.83,208.48 15.36,209.74 C15.89,211 15.91,212.42 16.44,213.64 C16.98,214.88 17.43,216.16 18,217.38 C18.57,218.6 19.38,219.71 19.97,220.91 C20.56,222.13 21.47,223.17 22.08,224.34 C22.69,225.56 22.85,227.01 23.5,228.18 C24.13,229.38 25.28,230.28 25.91,231.43 C26.6,232.61 27.33,233.75 28,234.89 C28.69,236.04 29.06,237.39 29.77,238.54 C30.48,239.7 31.13,240.86 31.86,241.98 C32.59,243.13 32.59,244.74 33.34,245.83 C34.09,246.97 35.73,247.48 36.48,248.56 C37.25,249.69 37.23,251.36 38,252.44 C38.84,253.53 40.22,254.18 41.01,255.24 C41.86,256.32 43.14,256.99 43.97,258.04 C44.84,259.1 45.27,260.46 46.12,261.48 C46.99,262.53 47.76,263.67 48.62,264.66 C49.51,265.72 49.98,267.08 50.87,268.08 C51.76,269.09 53.02,269.82 53.91,270.78 C54.85,271.79 55.98,272.57 56.9,273.5 C57.83,274.5 58.82,275.41 59.76,276.32 C60.73,277.3 60.95,279.01 61.91,279.9 C62.92,280.87 64.89,280.69 65.84,281.56 C66.88,282.5 67.47,283.84 68.46,284.69 C69.46,285.57 70.27,286.66 71.3,287.54 C72.34,288.39 73.96,288.51 75.01,289.32 C76.07,290.16 76.98,291.11 78.08,291.92 C79.16,292.72 79.95,293.93 81.04,294.71 C82.12,295.48 82.97,296.66 84.09,297.41 C85.18,298.16 87.01,297.83 88.12,298.57 C89.26,299.3 89.79,300.94 90.94,301.65 C92.08,302.36 93.3,302.95 94.45,303.66 C95.61,304.35 96.83,304.88 98.01,305.55 C99.16,306.2 100.66,306.28 101.84,306.93 C103,307.58 103.67,309.17 104.84,309.8 C106.02,310.43 107.01,311.46 108.19,312.11 C109.39,312.72 110.75,313.01 111.95,313.62 C113.14,314.23 114.7,314.1 115.9,314.69 C117.12,315.26 118.3,315.89 119.53,316.46 C120.75,317.03 122.07,317.31 123.29,317.88 C124.51,318.45 125.32,319.95 126.53,320.5 C127.77,321.05 129.5,320.44 130.73,320.97 C131.95,321.5 132.91,322.7 134.14,323.2 C135.38,323.71 136.62,324.26 137.86,324.79 C139.09,325.28 140.09,326.41 141.37,326.9 C142.6,327.37 144.23,326.9 145.49,327.39 C146.76,327.86 148.16,327.88 149.42,328.36 C150.7,328.83 151.63,330.13 152.91,330.58 C154.19,331.04 155.24,332.1 156.5,332.53 C157.74,332.97 159.14,333.12 160.4,333.54 C161.68,333.99 163.04,334.17 164.3,334.6 C165.57,335.03 167.14,334.56 168.41,334.94 C169.71,335.37 170.73,336.59 172.01,337 C173.3,337.42 174.36,338.52 175.66,338.93 C176.94,339.33 178.42,339.11 179.7,339.49 C180.99,339.88 182.21,340.51 183.51,340.88 C184.81,341.22 186.35,340.67 187.65,341.02 C188.97,341.36 190.27,341.71 191.55,342.05 C192.84,342.4 194.2,342.52 195.5,342.85 C196.82,343.19 197.88,344.41 199.18,344.74 C200.49,345.06 201.87,345.08 203.17,345.39 C204.49,345.71 205.89,345.57 207.19,345.87 C208.51,346.18 209.44,348.07 210.74,348.35 C212.06,348.66 213.6,347.88 214.9,348.17 C216.24,348.47 217.56,348.74 218.86,349 C220.18,349.29 221.35,350.28 222.65,350.57 C223.99,350.83 225.37,350.77 226.67,351.03 C228.01,351.3 229.33,351.58 230.63,351.8 C231.97,352.07 233.18,352.84 234.5,353.08 C235.84,353.33 237.3,352.78 238.6,353.02 C239.94,353.23 241.24,353.63 242.56,353.86 C243.9,354.06 245.15,354.91 246.43,355.07 C247.79,355.28 249.27,354.44 250.57,354.61 C251.93,354.77 253.23,355.34 254.51,355.48 C255.89,355.62 257.21,356.09 258.49,356.21 C259.87,356.33 261.2,356.66 262.48,356.76 C263.82,356.86 265.18,356.66 266.5,356.74 C267.86,356.84 269.28,355.6 270.6,355.68 C271.96,355.74 273.28,355.81 274.62,355.87 C275.96,355.93 277.27,356.88 278.59,356.94 C279.95,356.98 281.27,357.49 282.61,357.53 C283.95,357.57 285.31,356.52 286.65,356.56 C287.99,356.58 289.33,357.17 290.65,357.19 C292.01,357.21 293.35,357.65 294.66,357.67 C296.02,357.67 297.36,358 298.68,358 C300.04,358.02 301.38,357.76 302.72,357.76 C304.06,357.76 305.4,357.13 306.74,357.11 C308.08,357.11 309.42,357.98 310.75,357.96 C312.09,357.94 313.43,356.92 314.75,356.88 C316.09,356.86 317.45,357.51 318.79,357.47 C320.13,357.45 321.47,357.31 322.81,357.27 C324.15,357.19 325.51,357.67 326.85,357.59 C328.18,357.51 329.48,356.76 330.82,356.7 C332.16,356.64 333.5,356.42 334.82,356.31 C336.18,356.25 337.54,356.52 338.86,356.44 C340.2,356.33 341.54,356.29 342.87,356.17 C344.21,356.05 345.57,356.21 346.89,356.11 C348.23,355.99 349.53,355.24 350.85,355.09 C352.19,354.95 353.55,355.16 354.87,355.03 C356.21,354.89 357.5,354.28 358.82,354.14 C360.16,353.98 361.5,353.88 362.82,353.71 C364.16,353.55 365.54,353.88 366.86,353.69 C368.2,353.51 369.56,353.55 370.88,353.37 C372.22,353.17 373.51,352.78 374.83,352.58 C376.15,352.37 377.25,350.71 378.55,350.48 C379.89,350.28 381.2,350.16 382.52,349.92 C383.84,349.67 385.16,349.37 386.46,349.12 C387.78,348.86 389.06,348.47 390.36,348.21 C391.67,347.92 393.18,348.66 394.49,348.37 C395.79,348.07 397.05,347.62 398.37,347.32 C399.67,347.01 400.89,346.3 402.19,345.99 C403.48,345.67 405.09,346.48 406.34,346.16 C407.66,345.83 408.82,344.94 410.1,344.57 C411.4,344.23 412.45,343.07 413.75,342.7 C415.05,342.32 416.27,341.81 417.54,341.42 C418.84,341.02 420.59,342.16 421.85,341.75 C423.15,341.34 424.18,340.14 425.42,339.72 C426.72,339.31 428.22,339.58 429.5,339.15 C430.77,338.72 431.83,337.71 433.09,337.26 C434.33,336.79 435.48,336.02 436.74,335.53 C437.98,335.07 439.58,335.43 440.82,334.94 C442.1,334.48 443.01,333.18 444.25,332.67 C445.49,332.18 446.62,331.45 447.84,330.9 C449.08,330.37 450.23,329.72 451.47,329.18 C452.71,328.63 453.99,328.2 455.18,327.65 C456.4,327.08 457.78,326.82 458.98,326.27 C460.2,325.68 461.58,325.42 462.77,324.83 C463.97,324.22 464.6,322.51 465.78,321.88 C466.97,321.27 468.31,320.95 469.47,320.3 C470.67,319.67 472.15,319.59 473.32,318.94 C474.48,318.29 475.54,317.41 476.69,316.72 C477.85,316.03 479.25,315.79 480.39,315.08 C481.54,314.37 482.03,312.62 483.15,311.93 C484.28,311.2 486.23,311.73 487.33,311 C488.46,310.25 489.52,309.39 490.59,308.62 C491.71,307.87 492.66,306.87 493.74,306.08 C494.81,305.31 495.97,304.6 497.02,303.81 C498.1,302.97 498.3,301.04 499.36,300.23 C500.41,299.4 502.04,299.34 503.07,298.48 C504.13,297.63 504.86,296.41 505.87,295.56 C506.91,294.69 507.66,293.55 508.67,292.65 C509.69,291.78 510.88,291.13 511.88,290.24 C512.87,289.32 513.91,288.49 514.86,287.58 C515.85,286.66 517.36,286.3 518.29,285.36 C519.22,284.43 520.44,283.68 521.35,282.7 C522.29,281.73 523.12,280.67 524.03,279.7 C524.94,278.7 525.96,277.81 526.85,276.83 C527.74,275.82 527.72,274.01 528.6,272.99 C529.47,271.98 531.26,271.71 532.11,270.72 C532.96,269.68 533.49,268.36 534.34,267.33 C535.17,266.27 535.78,265.05 536.57,263.97 C537.4,262.9 537.57,261.35 538.34,260.28 C539.13,259.2 540.83,258.77 541.58,257.66 C542.35,256.54 542.03,254.71 542.76,253.61 C543.51,252.52 545.28,252.05 545.99,250.93 C546.72,249.8 547.12,248.46 547.81,247.34 C548.5,246.18 549.58,245.27 550.27,244.11 C550.92,242.95 551.59,241.77 552.24,240.59 C552.89,239.42 553.86,238.4 554.47,237.22 C555.1,236.04 555.32,234.62 555.93,233.42 C556.54,232.23 556.25,230.6 556.84,229.4 C557.43,228.2 557.73,226.88 558.3,225.69 C558.87,224.47 560.33,223.63 560.84,222.42 C561.39,221.2 561.22,219.65 561.71,218.43 C562.24,217.19 562.79,215.98 563.27,214.74 C563.76,213.5 565,212.52 565.46,211.28 C565.91,210 566.3,208.72 566.7,207.47 C567.15,206.19 567.27,204.8 567.68,203.52 C568.1,202.24 568.2,200.88 568.57,199.62 C568.98,198.32 569.46,197.09 569.81,195.81 C570.19,194.51 571.05,193.35 571.41,192.07 C571.74,190.77 572.14,189.51 572.46,188.21 C572.77,186.89 571.98,185.35 572.26,184.05 C572.57,182.72 573.03,181.49 573.3,180.17 C573.58,178.85 574.64,177.69 574.88,176.41 C575.14,175.07 574.43,173.6 574.64,172.28 C574.88,170.94 574.94,169.62 575.16,168.3 C575.35,166.96 576.08,165.74 576.24,164.4 C576.4,163.08 576.4,161.74 576.54,160.42 C576.69,159.08 577.68,157.82 577.78,156.52 C577.9,155.18 576.93,153.74 577.03,152.42 C577.15,151.08 578.49,149.82 578.55,148.48 C578.61,147.14 578.61,145.8 578.67,144.48 C578.67,144.48 579,144.5 579,144.5z  M364.77 147.18 C365.09,146.02 367.02,145.25 367.61,143.79 C368.1,142.61 368.38,141.29 369.09,139.97 C369.72,138.81 370.65,137.81 371.44,136.66 C372.22,135.56 372.76,134.32 373.7,133.24 C374.57,132.23 375.48,131.27 376.54,130.3 C377.53,129.41 378.67,128.73 379.82,127.92 C380.94,127.15 381.39,125.22 382.62,124.53 C383.82,123.92 385.45,124.08 386.78,123.56 C387.98,123.09 389.24,122.99 390.54,122.76 C391.76,122.56 392.99,122.42 394.35,122.34 C395.57,122.3 396.85,122.13 398.19,122.17 C399.43,122.21 400.78,121.58 402.14,121.71 C403.36,121.83 404.66,122.03 406,122.17 C407.24,122.32 408.41,123.41 409.75,123.56 C410.99,123.72 412.39,122.95 413.73,123.11 C415.01,123.23 416.21,123.76 417.54,123.88 C418.6,125.55 417.48,125.4 416.71,127.72 C416.37,128.8 416.1,130.14 415.56,131.54 C415.11,132.68 414.87,134.06 414.28,135.34 C413.73,136.49 411.92,137.02 411.23,138.24 C410.63,139.34 410.36,140.74 409.61,141.84 C408.9,142.91 407.7,143.62 406.85,144.66 C406.02,145.68 405.13,146.57 404.19,147.5 C403.28,148.42 403.02,150.1 401.96,150.92 C400.95,151.71 399.55,152.01 398.39,152.7 C397.27,153.35 395.98,153.56 394.72,154.04 C393.52,154.53 392.32,154.8 391.03,155.1 C389.79,155.4 388.57,155.59 387.21,155.73 C385.93,155.87 384.69,156.91 383.33,156.89 C382.06,156.85 380.68,157.07 379.32,156.87 C378.08,156.7 376.68,156.58 375.36,156.26 C374.12,155.97 372.97,155.1 371.65,154.65 C370.45,154.25 369.19,153.78 367.93,153.27 C366.76,152.78 366.27,151.71 365.03,151.14 C364.14,149.25 363.98,149.64 364.71,147.18 C364.71,147.18 364.77,147.18 364.77,147.18z  M193.8 131.31 C194.53,130.42 195.44,129.26 196.58,128.23 C197.49,127.37 199.58,127.82 200.76,126.99 C201.81,126.26 202.67,125.22 203.94,124.57 C205.08,123.96 206.42,123.8 207.74,123.29 C208.94,122.82 209.95,121.69 211.31,121.34 C212.55,121.02 213.76,119.92 215.16,119.72 C216.44,119.53 217.86,119.72 219.28,119.66 C220.58,119.61 221.92,120.94 223.3,121 C224.6,121.04 225.92,120.94 227.3,121.12 C228.68,121.28 229.98,121.28 231.28,121.59 C232.61,121.89 233.87,122.19 235.11,122.62 C236.41,123.07 238.01,122.72 239.21,123.25 C240.45,123.84 241.42,124.94 242.56,125.63 C243.73,126.32 244.5,127.56 245.56,128.33 C246.66,129.12 248.16,129.41 249.13,130.28 C250.17,131.17 251.36,131.9 252.26,132.88 C253.23,133.87 253.29,135.58 254.12,136.6 C255,137.67 256.01,138.57 256.74,139.6 C257.57,140.78 257.9,142.12 258.52,143.2 C259.3,144.5 261.2,144.98 261.73,146.02 C262.83,148.25 263.78,148.21 263.15,150.12 C261.93,150.75 260.01,150.51 258.83,151.06 C257.59,151.65 256.5,152.42 255.28,152.93 C254,153.48 252.95,154.43 251.73,154.88 C250.43,155.32 249.21,155.93 247.97,156.3 C246.64,156.7 245.3,156.85 244.02,157.13 C242.66,157.44 241.36,157.76 240.06,157.96 C238.7,158.15 237.3,157.68 236.02,157.78 C234.64,157.88 233.35,158.76 232.03,158.72 C230.67,158.7 229.39,157.64 228.07,157.5 C226.71,157.35 225.17,158.55 223.89,158.29 C222.55,158.03 221.41,156.91 220.16,156.54 C218.84,156.16 217.7,155.45 216.48,154.96 C215.18,154.47 213.83,154.31 212.65,153.74 C211.43,153.13 210.48,152.07 209.38,151.38 C208.2,150.67 207.03,150.08 205.97,149.31 C204.84,148.52 203.05,148.6 202.08,147.75 C201,146.85 200.05,145.82 199.13,144.92 C198.1,143.91 197.55,142.55 196.74,141.61 C195.75,140.45 194.43,139.74 193.76,138.83 C192.26,136.82 191.85,137.06 191.85,135.07 C191.83,133.06 192.28,133.24 193.88,131.33 C193.88,131.33 193.8,131.31 193.8,131.31z  M500.33 165.93 C500.23,167.29 500.07,168.63 499.99,169.95 C499.87,171.31 499.95,172.67 499.8,173.97 C499.66,175.33 499.84,176.73 499.66,178.01 C499.48,179.37 499.5,180.77 499.28,182.05 C499.01,183.4 497.41,184.45 497.15,185.75 C496.84,187.09 497.55,188.66 497.19,189.9 C496.84,191.24 495.54,192.25 495.14,193.49 C494.71,194.81 494.26,196.05 493.8,197.29 C493.31,198.57 493.15,199.93 492.58,201.13 C492.01,202.37 492.09,203.93 491.44,205.11 C490.79,206.29 489.94,207.38 489.23,208.52 C488.5,209.66 487.91,210.94 487.14,212.04 C486.35,213.11 485.28,214.05 484.42,215.08 C483.57,216.12 482.68,217.15 481.77,218.15 C480.87,219.14 478.92,219.14 477.97,220.08 C477,221.01 476.94,222.86 475.92,223.8 C474.95,224.69 473.99,225.62 472.96,226.52 C471.94,227.39 470.54,227.82 469.47,228.69 C468.45,229.54 467.42,230.38 466.36,231.25 C465.33,232.08 464.46,233.16 463.38,233.97 C462.33,234.76 460.91,235.11 459.81,235.9 C458.74,236.67 457.48,237.22 456.36,237.99 C455.27,238.75 454.9,240.66 453.76,241.39 C452.63,242.12 451.41,242.73 450.23,243.44 C449.1,244.15 447.47,244.05 446.3,244.74 C445.14,245.39 444.21,246.51 443.01,247.14 C441.85,247.79 440.15,247.42 438.91,248.05 C437.73,248.66 436.7,249.55 435.48,250.14 C434.29,250.73 433.37,251.95 432.13,252.52 C430.92,253.11 429.82,253.96 428.58,254.53 C427.37,255.08 425.68,254.59 424.44,255.14 C423.23,255.67 422.35,257.09 421.08,257.6 C419.84,258.08 418.72,258.98 417.44,259.48 C416.21,259.95 414.89,260.34 413.61,260.81 C412.33,261.25 410.97,261.41 409.67,261.84 C408.39,262.29 407.08,262.63 405.8,263.04 C404.52,263.47 403.38,264.32 402.06,264.68 C400.78,265.09 399.08,263.99 397.76,264.38 C396.46,264.73 395.49,266.21 394.17,266.57 C392.87,266.9 391.37,266.51 390.05,266.84 C388.75,267.16 387.43,267.45 386.11,267.75 C384.82,268.06 383.56,268.63 382.24,268.93 C380.92,269.21 379.48,268.87 378.14,269.11 C376.84,269.4 375.62,270.15 374.29,270.41 C372.97,270.66 371.75,271.45 370.41,271.69 C369.09,271.94 367.61,271.14 366.27,271.39 C364.93,271.59 363.82,273.2 362.48,273.4 C361.14,273.58 359.72,273.28 358.38,273.46 C357.06,273.62 355.76,274.33 354.42,274.5 C353.08,274.66 351.64,274.05 350.3,274.19 C348.96,274.35 347.64,274.74 346.3,274.84 C344.96,274.98 343.54,274.37 342.19,274.5 C340.85,274.6 339.53,274.9 338.17,274.98 C336.83,275.11 335.53,275.77 334.17,275.86 C332.83,275.96 331.49,276.38 330.13,276.45 C328.79,276.51 327.45,276.73 326.09,276.77 C324.76,276.81 323.33,275.45 321.98,275.49 C320.64,275.53 319.32,276.85 317.96,276.87 C316.62,276.91 315.24,275.57 313.86,275.57 C312.52,275.59 311.18,275.61 309.82,275.61 C308.46,275.61 307.14,277.1 305.78,277.1 C304.44,277.08 303.1,275.73 301.77,275.71 C300.43,275.69 299.07,276.47 297.69,276.43 C296.35,276.38 295.01,276.14 293.65,276.08 C292.31,276.04 290.97,276.08 289.61,276 C288.27,275.96 286.97,274.82 285.63,274.72 C284.3,274.66 282.94,274.78 281.56,274.72 C280.24,274.62 278.86,274.86 277.52,274.76 C276.18,274.66 274.82,274.86 273.44,274.74 C272.1,274.64 270.8,273.99 269.46,273.87 C268.12,273.74 266.78,273.58 265.45,273.44 C264.11,273.32 262.79,272.97 261.45,272.83 C260.11,272.69 258.75,272.65 257.41,272.48 C256.07,272.34 254.69,272.61 253.33,272.44 C251.99,272.28 250.71,271.57 249.37,271.41 C248.06,271.23 246.66,271.53 245.3,271.33 C243.96,271.14 242.54,271.47 241.2,271.27 C239.88,271.08 238.56,270.62 237.22,270.39 C235.9,270.19 234.54,270.09 233.2,269.84 C231.88,269.64 230.44,269.95 229.1,269.7 C227.79,269.5 226.41,269.5 225.09,269.26 C223.75,269.01 222.69,267.28 221.35,267.04 C220.03,266.8 218.59,267.08 217.27,266.84 C215.94,266.57 214.76,265.64 213.42,265.36 C212.1,265.09 210.52,266.13 209.18,265.88 C207.86,265.6 206.7,264.42 205.38,264.14 C204.07,263.85 202.58,264.34 201.24,264.08 C199.93,263.79 198.55,263.75 197.23,263.45 C195.91,263.16 194.81,261.92 193.49,261.62 C192.17,261.31 190.88,260.93 189.56,260.6 C188.24,260.3 186.88,260.18 185.56,259.85 C184.26,259.54 183.06,258.96 181.81,258.61 C180.53,258.23 178.99,258.79 177.71,258.37 C176.47,257.96 175.46,256.8 174.22,256.34 C172.98,255.89 171.44,256.15 170.22,255.63 C169,255.14 167.66,254.87 166.43,254.33 C165.23,253.78 164.52,252.19 163.32,251.6 C162.14,251.01 161.15,250.08 159.97,249.43 C158.8,248.82 157.74,248.09 156.58,247.42 C155.43,246.77 153.66,247.18 152.51,246.51 C151.37,245.79 150.27,245.06 149.16,244.33 C148.04,243.62 147.64,241.85 146.54,241.1 C145.45,240.37 143.9,240.27 142.83,239.5 C141.77,238.73 140.45,238.28 139.4,237.47 C138.34,236.67 137.57,235.52 136.54,234.68 C135.48,233.85 134.79,232.63 133.78,231.78 C132.76,230.93 131.14,230.78 130.15,229.91 C129.13,229.04 128.22,228.08 127.24,227.19 C126.25,226.29 125.74,224.93 124.77,224 C123.79,223.11 122.25,222.8 121.32,221.89 C120.39,220.95 119.31,220.12 118.4,219.19 C117.48,218.21 117.61,216.28 116.67,215.33 C115.78,214.35 114.62,213.66 113.73,212.67 C112.86,211.67 111.84,210.8 111.01,209.82 C110.14,208.81 108.56,208.38 107.74,207.36 C106.89,206.33 105.96,205.35 105.15,204.32 C104.32,203.28 104.5,201.47 103.69,200.44 C102.9,199.38 102.47,198.06 101.72,197 C100.97,195.95 99.16,195.52 98.49,194.3 C97.86,193.12 98.37,191.38 97.88,190.16 C97.34,188.88 96.44,187.8 96.08,186.58 C95.63,185.16 94.66,183.96 94.49,182.83 C94.23,180.88 94.94,179.64 95.65,179.23 C96.38,178.8 97.68,178.03 99.28,178.46 C100.34,178.74 101.66,179.05 102.94,179.56 C104.01,180 105.07,180.8 106.22,181.34 C107.32,181.85 108.17,183.01 109.27,183.56 C110.42,184.17 111.6,184.61 112.61,185.18 C113.83,185.83 115.37,185.75 116.25,186.24 C117.42,186.89 118.17,188.15 119.25,188.64 C120.47,189.18 121.56,189.92 122.68,190.32 C123.92,190.77 125.07,191.26 126.23,191.68 C127.47,192.13 128.42,193.02 129.54,193.51 C130.71,194.04 132.03,194.06 133.07,194.79 C134.08,195.48 135.24,196.07 136.11,197.07 C136.88,197.96 138.2,198.69 138.89,199.91 C139.46,200.92 138.89,202.59 139.38,203.91 C139.9,205.25 141.06,206.37 141.31,207.71 C141.57,209.09 141.73,210.51 141.87,211.89 C142.04,213.27 141.18,214.8 141.43,216.18 C141.63,217.54 141.83,219.02 142.3,220.4 C142.73,221.68 144.55,222.33 145.34,223.61 C145.97,224.65 146.4,225.87 147.51,226.86 C148.49,227.7 149.73,228.2 150.92,228.98 C152,229.69 152.99,230.64 154.21,231.29 C155.41,231.9 156.3,233.24 157.52,233.79 C158.76,234.36 160.44,233.91 161.66,234.38 C162.98,234.87 164.21,235.37 165.45,235.74 C166.87,236.19 168.23,236.27 169.39,236.51 C170.81,236.82 172.01,237.49 173.24,237.53 C174.68,237.59 176,237.59 177.24,237.34 C178.6,237.06 180.28,237.36 181.46,236.76 C182.64,236.13 183.53,234.81 184.55,233.91 C185.54,233.04 185.58,231.29 186.45,230.21 C187.24,229.18 188.24,228.31 188.95,227.13 C189.64,225.99 190.33,224.89 190.96,223.63 C191.55,222.46 193.09,221.68 193.64,220.4 C194.24,218.98 194.65,217.72 195.89,216.99 C197.11,216.26 198.42,216.34 199.93,216.54 C201.98,216.85 202.16,215.67 204.21,215.96 C206.26,216.24 206.03,217.72 208.08,218.03 C210.13,218.31 210.25,217.46 212.3,217.74 C214.33,218.03 214.25,218.68 216.28,218.96 C218.33,219.25 218.45,218.43 220.48,218.72 C222.53,219.02 222.49,219.25 224.52,219.55 C226.57,219.84 226.49,220.32 228.52,220.61 C230.57,220.89 230.65,220.3 232.68,220.59 C234.72,220.87 234.64,221.34 236.69,221.62 C238.72,221.91 238.8,221.22 240.85,221.52 C242.9,221.81 242.76,222.82 244.81,223.11 C246.84,223.39 246.86,223.17 248.91,223.45 C250.96,223.76 251.02,223.27 253.07,223.55 C255.1,223.84 255.2,223 257.25,223.29 C259.28,223.59 259.11,224.85 261.14,225.12 C263.17,225.4 263.19,225.24 265.24,225.52 C267.27,225.83 267.35,225.14 269.4,225.46 C271.45,225.75 271.37,226.15 273.42,226.38 C274.88,226.48 275.98,227.41 277.21,228.04 C278.49,228.67 279.75,229.14 280.66,230.24 C281.56,231.29 281.54,232.73 281.98,234.11 C282.41,235.48 283.34,236.67 283.87,237.91 C284.46,239.23 284.74,240.72 285.45,241.87 C286.18,243.07 287.56,243.89 288.45,244.88 C289.37,245.94 290.71,246.49 291.82,247.34 C292.9,248.13 293.45,249.96 294.75,250.59 C295.92,251.18 297.38,251.6 298.76,252.05 C300,252.46 301.52,252.31 302.94,252.6 C304.24,252.84 305.64,252.92 307.08,253.07 C308.4,253.21 309.76,253.76 311.22,253.8 C312.54,253.86 313.94,252.56 315.38,252.52 C316.72,252.52 318.1,253.35 319.54,253.29 C320.88,253.23 322.26,252.99 323.7,252.88 C325.08,252.76 326.48,252.76 327.84,252.64 C329.26,252.5 330.52,251.48 331.88,251.32 C333.26,251.14 334.74,251.81 336.1,251.56 C337.48,251.3 339.02,251.71 340.34,251.36 C341.7,250.97 342.69,249.53 343.97,249.02 C345.27,248.48 346.73,248.33 347.91,247.66 C349.1,246.95 349.83,245.63 350.89,244.74 C351.92,243.84 353.3,243.32 354.2,242.22 C355.05,241.18 355.37,239.76 356.08,238.5 C356.73,237.34 358.3,236.55 358.8,235.19 C359.29,233.97 358.64,232.29 359.01,230.89 C359.35,229.59 360.87,228.51 361.1,227.07 C361.34,225.75 360.45,223.98 361.1,222.88 C361.75,221.79 363.37,221.26 364.4,220.47 C365.42,219.67 366.29,218.23 367.57,217.84 C368.91,217.46 370.67,218.64 372.03,218.27 C373.37,217.93 374.49,216.69 375.85,216.36 C377.19,216.02 378.44,215.27 379.8,214.92 C381.16,214.62 382.64,214.92 384.02,214.64 C385.38,214.35 386.66,213.56 388.04,213.32 C389.4,213.07 390.9,213.72 392.3,213.52 C393.66,213.34 394.98,212.58 396.38,212.46 C397.76,212.34 399.2,212.89 400.6,212.85 C401.98,212.81 403.36,212.73 404.74,212.75 C406.12,212.77 407.58,211.77 408.98,211.89 C410.36,212.02 411.6,213.52 412.98,213.72 C414.62,213.97 415.52,214.29 416.51,215.08 C417.55,215.94 419.41,216.02 420.35,217.19 C421.14,218.19 421.87,219.25 423,220.3 C423.92,221.16 424.38,222.76 425.76,223.53 C426.84,224.16 428.02,225.16 429.48,225.71 C430.77,226.17 432.34,225.28 433.78,225.22 C435.1,225.18 436.58,225.62 437.96,225.22 C439.24,224.81 440.21,223.55 441.51,222.94 C442.73,222.35 444.11,222.03 445.3,221.3 C446.5,220.59 447.92,220.18 449.04,219.39 C450.19,218.56 450.82,217.11 451.84,216.26 C452.97,215.29 454.15,214.57 455.06,213.66 C456.24,212.52 457.46,211.75 458.19,210.9 C459.16,209.72 460.07,208.62 460.54,207.4 C461.09,206.06 461.62,204.64 461.74,203.28 C461.86,201.92 461.9,200.44 461.78,199.04 C461.66,197.67 460.68,196.35 460.54,194.95 C460.4,193.59 460.54,192.17 460.54,190.79 C460.52,189.43 459.93,187.95 460.22,186.54 C460.46,185.24 462.19,184.41 462.83,183.09 C463.32,182.05 463.42,180.67 464.76,179.66 C465.7,178.95 467.32,178.93 468.64,178.05 C469.65,177.34 470.75,176.47 471.99,175.6 C473.02,174.86 473.55,173.26 474.68,172.35 C475.7,171.55 476.43,170.31 477.52,169.36 C478.5,168.51 480.16,168.3 481.2,167.29 C482.11,166.35 482.92,165.22 483.88,164.14 C484.77,163.16 485.07,161.66 485.99,160.56 C486.84,159.55 488.48,159.1 489.35,157.96 C490.15,156.91 490.41,155.4 491.22,154.23 C491.99,153.15 493.19,152.3 493.98,151.12 C494.71,149.98 495.42,148.8 496.15,147.6 C497.17,145.96 498.55,144.68 499.42,145.57 C499.95,146.12 499.54,147.65 499.74,149.72 C499.89,150.79 499.99,152.07 499.99,153.7 C499.99,155.06 500.98,156.42 500.96,157.74 C500.94,159.1 499.74,160.42 499.68,161.74 C499.64,163.12 500.37,164.5 500.29,165.83 C500.29,165.83 500.33,165.93 500.33,165.93z "/>
</g>
</g>
<g id="time_group"/>
</svg>